<?xml version="1.0" encoding="UTF-8"?>
<svg version="1.1" xmlns="http://www.w3.org/2000/svg" width="2000" height="2000">
<path d="M0 0 C3.39062042 0.87022425 6.7930995 1.67460665 10.20117188 2.47363281 C89.12189592 21.35046351 166.94929089 60.66236624 228.15429688 113.80957031 C228.8890625 114.44378906 229.62382813 115.07800781 230.38085938 115.73144531 C232.31617895 117.41232048 234.23799643 119.10705592 236.15429688 120.80957031 C236.86199219 121.43605469 237.5696875 122.06253906 238.29882812 122.70800781 C240.93308753 125.05830891 243.54650807 127.42991916 246.15429688 129.80957031 C246.67362793 130.28233398 247.19295898 130.75509766 247.72802734 131.2421875 C262.00040703 144.28526733 275.53507381 158.0931952 289.15429688 171.80957031 C287.56082247 175.70551323 285.04782909 178.15091205 282.08129883 181.09375 C281.56555801 181.60817657 281.0498172 182.12260315 280.51844788 182.65261841 C278.81437648 184.35020647 277.103439 186.04070246 275.39257812 187.73144531 C274.20100282 188.91674436 273.0099451 190.10256394 271.81938171 191.28887939 C268.68135124 194.41360821 265.53781319 197.53273191 262.39263916 200.65026855 C257.37569921 205.62411939 252.36532529 210.6045592 247.3583889 215.58847809 C245.61775249 217.31899008 243.87368657 219.04598758 242.12922668 220.77264404 C237.09052617 225.77329989 232.11920384 230.78584333 227.52336121 236.20440674 C225.51458395 238.55960365 223.43985879 240.71991371 221.15429688 242.80957031 C220.49429688 242.80957031 219.83429687 242.80957031 219.15429688 242.80957031 C218.82429688 243.79957031 218.49429688 244.78957031 218.15429688 245.80957031 C216.58789062 247.35253906 216.58789062 247.35253906 214.59179688 248.99707031 C208.83477281 253.89054077 203.55300282 259.11803476 198.65429688 264.87207031 C196.41555431 267.47716384 194.12701548 269.7812709 191.50292969 271.99537659 C186.8140707 276.0488509 182.44748416 280.38329698 178.07617188 284.77416992 C176.77231789 286.07780487 176.77231789 286.07780487 175.44212341 287.40777588 C173.08341635 289.76705595 170.72693485 292.12851661 168.37145615 294.4910171 C165.90024587 296.96852296 163.42616074 299.44315472 160.95239258 301.91810608 C156.27927941 306.5943144 151.60871891 311.27306357 146.93909359 315.95275456 C141.61814947 321.2849165 136.29433014 326.61420382 130.97027969 331.94326389 C120.02843968 342.89552712 109.09017591 353.85135482 98.15429688 364.80957031 C94.77253797 363.20816259 92.56629416 361.45516872 89.92749023 358.77807617 C89.10240463 357.94638412 88.27731903 357.11469208 87.42723083 356.25779724 C86.54181107 355.35578079 85.6563913 354.45376434 84.74414062 353.52441406 C83.3336296 352.10232576 81.92311238 350.68024355 80.51225376 349.2585001 C77.53915882 346.25919844 74.575013 343.25105293 71.60961914 340.24414062 C69.17971992 337.78082827 66.74773335 335.3196612 64.31044006 332.86366272 C62.48682036 331.02518286 60.66769711 329.1822274 58.85398865 327.33396912 C41.99547535 310.34398589 22.223654 296.99748389 1.15429688 285.80957031 C0.39101074 285.40254883 -0.37227539 284.99552734 -1.15869141 284.57617188 C-58.84770348 254.33095482 -126.46606067 251.67732622 -187.98046875 270.78320312 C-194.07413919 272.81653806 -199.9752082 275.20676487 -205.84570312 277.80957031 C-206.75932617 278.21014648 -207.67294922 278.61072266 -208.61425781 279.0234375 C-228.03756071 287.64503923 -246.50229825 298.15475642 -262.84570312 311.80957031 C-263.42449219 312.2882959 -264.00328125 312.76702148 -264.59960938 313.26025391 C-277.79232677 324.22967631 -290.61400036 335.9751553 -300.84570312 349.80957031 C-301.69013139 350.91421412 -302.53523229 352.01834395 -303.38085938 353.12207031 C-314.19828229 367.39182125 -323.26430113 382.59677934 -330.84570312 398.80957031 C-331.40515625 399.98777344 -331.96460938 401.16597656 -332.54101562 402.37988281 C-338.57173802 415.59137234 -342.91906411 429.01498107 -347.84570312 442.80957031 C-382.82570313 442.80957031 -417.80570313 442.80957031 -453.84570312 442.80957031 C-452.55351202 436.34861476 -451.26381611 430.60353182 -449.09570312 424.49707031 C-446.80728366 417.86297249 -444.78221691 411.19679845 -442.90820312 404.43457031 C-429.91010229 358.26410114 -406.54287854 314.85232623 -374.84570312 278.80957031 C-374.21148438 278.07609375 -373.57726562 277.34261719 -372.92382812 276.58691406 C-371.24419751 274.64917507 -369.54720166 272.72811649 -367.84570312 270.80957031 C-367.20761719 270.07867188 -366.56953125 269.34777344 -365.91210938 268.59472656 C-356.8571698 258.34353808 -347.34469555 248.48455634 -336.59570312 240.00097656 C-334.13086543 238.03680903 -331.74516649 236.0035706 -329.36914062 233.93359375 C-315.00687943 221.4904278 -299.31981876 211.2186223 -282.84570312 201.80957031 C-281.94674316 201.2889502 -281.0477832 200.76833008 -280.12158203 200.23193359 C-248.15452513 181.81545958 -213.8583743 169.60692784 -177.84570312 161.80957031 C-176.73533691 161.5644873 -176.73533691 161.5644873 -175.60253906 161.31445312 C-170.70623233 160.25829389 -165.80752586 159.46988171 -160.84570312 158.80957031 C-159.32251465 158.60654297 -159.32251465 158.60654297 -157.76855469 158.39941406 C-141.03670679 156.27503875 -124.51252463 155.53493707 -107.65820312 155.55957031 C-106.74804443 155.56034576 -105.83788574 155.56112122 -104.90014648 155.56192017 C-102.3050378 155.56835097 -99.71025515 155.58455305 -97.11523438 155.60644531 C-96.33743118 155.61083115 -95.55962799 155.61521698 -94.758255 155.61973572 C-91.28261634 155.66535516 -88.19358171 155.91841303 -84.84570312 156.80957031 C-83.38661195 156.98194243 -81.92363441 157.12324282 -80.45898438 157.23925781 C-79.61255371 157.31047852 -78.76612305 157.38169922 -77.89404297 157.45507812 C-76.99121582 157.53081055 -76.08838867 157.60654297 -75.15820312 157.68457031 C-65.59306396 158.55635463 -56.2580188 159.90038978 -46.84570312 161.80957031 C-45.89550293 161.99471191 -44.94530273 162.17985352 -43.96630859 162.37060547 C-17.8918485 167.50074225 7.03258948 175.65061131 31.15429688 186.80957031 C32.09354004 187.23882813 33.0327832 187.66808594 34.00048828 188.11035156 C52.1391479 196.43177267 68.82850044 205.93207936 85.20166016 217.34008789 C86.04841309 217.92040771 86.89516602 218.50072754 87.76757812 219.09863281 C88.51821533 219.62150879 89.26885254 220.14438477 90.04223633 220.68310547 C92.34358108 222.12330286 92.34358108 222.12330286 96.15429688 221.80957031 C98.46526224 220.09527646 98.46526224 220.09527646 100.73925781 217.71044922 C101.63988953 216.81597076 102.54052124 215.92149231 103.46844482 214.99990845 C104.44221744 214.01234162 105.4156177 213.02440752 106.38867188 212.03613281 C107.39113625 211.03128434 108.39434094 210.02717393 109.39825439 209.02377319 C111.499143 206.91975676 113.59314168 204.80919142 115.68212891 202.69335938 C118.36438278 199.977082 121.05965947 197.27420145 123.75973129 194.57564735 C125.83118838 192.50364737 127.89739898 190.42648319 129.96186066 188.34751511 C130.95426014 187.34873796 131.94788738 186.35117923 132.94274139 185.35484695 C134.3291882 183.96408008 135.70824568 182.56595847 137.08691406 181.16748047 C137.87426941 180.37250153 138.66162476 179.57752258 139.47283936 178.75845337 C141.37204636 176.98618809 141.37204636 176.98618809 141.15429688 174.80957031 C139.16710518 173.21736742 137.18292421 171.75476612 135.09179688 170.30957031 C134.46200928 169.86814697 133.83222168 169.42672363 133.18334961 168.97192383 C131.18024343 167.57467862 129.16890728 166.19016811 127.15429688 164.80957031 C126.2169873 164.16544189 126.2169873 164.16544189 125.26074219 163.50830078 C86.70390107 137.12140819 44.86217472 118.20417835 0.15429688 104.80957031 C-1.14096924 104.41946777 -1.14096924 104.41946777 -2.46240234 104.02148438 C-16.99902473 99.71986125 -31.90899932 97.28162256 -46.84570312 94.80957031 C-47.77592285 94.65214355 -48.70614258 94.4947168 -49.66455078 94.33251953 C-103.80856714 85.22811337 -165.89623974 88.50766117 -218.84570312 103.80957031 C-219.55436523 104.0088916 -220.26302734 104.20821289 -220.99316406 104.41357422 C-245.06297298 111.19593469 -268.40636568 119.75900654 -290.84570312 130.80957031 C-292.46774658 131.60621094 -292.46774658 131.60621094 -294.12255859 132.41894531 C-315.97072984 143.2403164 -336.89937034 155.37424605 -356.10351562 170.44824219 C-357.80685529 171.779215 -359.52551492 173.08687208 -361.25195312 174.38769531 C-377.63267484 186.75898057 -392.62886193 200.51386828 -407.15820312 214.99707031 C-407.63442108 215.47060944 -408.11063904 215.94414856 -408.60128784 216.43203735 C-414.23891813 222.04561104 -419.72675967 227.71725621 -424.84570312 233.80957031 C-425.36624268 234.42872314 -425.88678223 235.04787598 -426.4230957 235.68579102 C-495.05061054 318.1181222 -525.30841249 417.21751827 -521.99061584 539.94671631 C-519.44274449 567.27240437 -514.24680021 594.67441676 -505.84570312 620.80957031 C-505.36278809 622.34605225 -505.36278809 622.34605225 -504.87011719 623.91357422 C-499.71365557 640.25999005 -493.79262295 656.14031292 -486.84570312 671.80957031 C-486.48009277 672.63859863 -486.11448242 673.46762695 -485.73779297 674.32177734 C-479.65820225 687.97375266 -472.39627649 700.92402694 -464.84570312 713.80957031 C-464.36311035 714.63408691 -463.88051758 715.45860352 -463.38330078 716.30810547 C-445.33711116 746.94171793 -422.62313719 774.03509372 -397.59570312 799.18457031 C-396.62153442 800.16574829 -396.62153442 800.16574829 -395.62768555 801.16674805 C-391.19704415 805.5827613 -386.58983535 809.73430737 -381.84570312 813.80957031 C-380.86988281 814.66679688 -379.8940625 815.52402344 -378.88867188 816.40722656 C-353.98584597 837.90337314 -325.65228449 856.68303656 -295.93310547 870.80859375 C-293.67003781 871.89380748 -291.42412435 873.01057748 -289.17773438 874.12988281 C-259.52494282 888.7578595 -228.72065894 899.02162857 -196.47070312 905.99707031 C-195.31868408 906.24706787 -194.16666504 906.49706543 -192.97973633 906.75463867 C-182.85172226 908.90331315 -172.69708323 910.80371183 -162.34570312 911.37207031 C-156.2838772 911.71270044 -156.2838772 911.71270044 -153.66796875 912.29101562 C-149.99034912 912.96673051 -146.3230851 913.16816831 -142.59570312 913.35253906 C-141.77070312 913.3939653 -140.94570313 913.43539154 -140.09570312 913.47807312 C-108.31840924 914.94651697 -76.28046731 915.09129732 -44.84570312 909.80957031 C-44.15893494 909.69548828 -43.47216675 909.58140625 -42.7645874 909.46386719 C-12.36678442 904.35863696 17.72503431 895.7499685 46.15429688 883.80957031 C47.12834473 883.40270996 48.10239258 882.99584961 49.10595703 882.57666016 C91.44337686 864.75281113 130.54872656 840.5929432 164.35351562 809.36425781 C165.80968411 808.03603718 167.27019025 806.71137365 168.77392578 805.43725586 C175.96369082 799.32796176 182.51144812 792.56111049 189.15429688 785.87207031 C190.41838538 784.60295658 191.68270643 783.33407443 192.94726562 782.06542969 C196.01896411 778.98280711 199.08749696 775.89706604 202.15429688 772.80957031 C204.99803714 774.10255926 207.05323986 775.45996929 209.25482178 777.66958618 C210.13393471 778.54457512 210.13393471 778.54457512 211.0308075 779.4372406 C211.66162735 780.07525101 212.2924472 780.71326141 212.94238281 781.37060547 C213.61596329 782.04389389 214.28954376 782.71718231 214.98353577 783.41087341 C217.20668841 785.63541835 219.4226748 787.8669616 221.63867188 790.09863281 C223.17951552 791.64320694 224.72080159 793.18733982 226.26251221 794.73104858 C230.31768725 798.7938573 234.36682012 802.86263653 238.41473389 806.93267822 C242.54695299 811.08536137 246.68484445 815.23238375 250.82226562 819.37988281 C258.93851186 827.51757429 267.0483877 835.66158301 275.15429688 843.80957031 C273.46437949 847.40528811 271.47620967 849.7323334 268.64648438 852.54785156 C267.7415625 853.45083984 266.83664062 854.35382812 265.90429688 855.28417969 C265.43121094 855.75106201 264.958125 856.21794434 264.47070312 856.69897461 C263.04971504 858.10191152 261.63709244 859.51330524 260.22460938 860.92480469 C255.56279751 865.55698639 250.83949392 870.04330939 245.85253906 874.32299805 C243.56015609 876.32965704 241.45234295 878.489011 239.34179688 880.68457031 C235.07575977 885.00287128 230.58032715 888.83605449 225.83789062 892.61816406 C223.36298823 894.63915423 221.0436483 896.74675747 218.71679688 898.93457031 C210.72505828 906.20324684 201.86717448 912.44396667 193.15429688 918.80957031 C192.42259277 919.34517578 191.69088867 919.88078125 190.93701172 920.43261719 C149.88195189 950.3363261 104.87209853 972.7563696 57.15429688 989.80957031 C55.68814941 990.34130859 55.68814941 990.34130859 54.19238281 990.88378906 C1.7678394 1009.78922026 -53.31295331 1017.01492115 -108.78492737 1017.11830521 C-110.73898648 1017.121987 -112.69304109 1017.12784755 -114.64709473 1017.13375854 C-140.52546851 1017.17231393 -166.27379802 1015.93842371 -191.84570312 1011.80957031 C-193.10640625 1011.6071875 -194.36710937 1011.40480469 -195.66601562 1011.19628906 C-216.469127 1007.53440229 -237.25026815 1002.64884783 -257.45996094 996.52148438 C-259.82861461 995.81466959 -262.20530884 995.147435 -264.58789062 994.48925781 C-346.84611832 971.41069637 -420.89577707 920.60851674 -480.90820312 860.87207031 C-481.59825439 860.18669189 -482.28830566 859.50131348 -482.99926758 858.79516602 C-487.48441147 854.29583382 -491.70749097 849.62797068 -495.84570312 844.80957031 C-496.92676506 843.57174392 -498.00877903 842.33474828 -499.09179688 841.09863281 C-515.46005766 822.33446376 -515.46005766 822.33446376 -519.82495117 814.52832031 C-521.31723517 812.01560102 -523.12488685 809.82218381 -524.97070312 807.55957031 C-537.17118752 792.14365792 -548.27834983 774.9614663 -557.84570312 757.80957031 C-558.59400391 756.46886475 -558.59400391 756.46886475 -559.35742188 755.10107422 C-571.96880982 732.35868494 -583.74083448 709.23654964 -592.73779297 684.80859375 C-593.90566034 681.64727098 -595.10455739 678.49858074 -596.30273438 675.34863281 C-606.54169142 648.01911546 -613.27827549 620.05230047 -618.22558594 591.33349609 C-618.77692331 588.2004238 -619.37164253 585.08146603 -619.99414062 581.96191406 C-625.29187213 554.94663822 -626.12433577 527.69770378 -626.15820312 500.24707031 C-626.16178833 499.08466827 -626.16537354 497.92226624 -626.16906738 496.72463989 C-626.20553028 474.76137018 -625.12958494 452.82852088 -622.09570312 431.05957031 C-621.92578857 429.82754883 -621.75587402 428.59552734 -621.58081055 427.32617188 C-614.67685753 379.00155696 -601.21315887 332.18613133 -580.84570312 287.80957031 C-580.32363281 286.67052246 -579.8015625 285.53147461 -579.26367188 284.35791016 C-558.76495471 240.00013259 -531.90242128 198.02792975 -498.80273438 161.94628906 C-497.05058828 160.03326727 -495.34869547 158.08941748 -493.65820312 156.12207031 C-490.13953524 152.0842547 -486.49606255 148.1654514 -482.84570312 144.24707031 C-482.26409424 143.6216333 -481.68248535 142.99619629 -481.08325195 142.35180664 C-475.38854379 136.26022125 -469.59480314 130.39338353 -463.27148438 124.95410156 C-460.73481422 122.7115381 -458.26648083 120.40745943 -455.79931641 118.08911133 C-450.52286328 113.13459933 -445.22550027 108.32539232 -439.50585938 103.87988281 C-437.49236374 102.3128451 -435.50566295 100.7269546 -433.52929688 99.11425781 C-378.22386712 54.08325484 -311.16016165 18.77631827 -241.51367188 2.4675293 C-238.22131291 1.65558682 -234.95643945 0.75478938 -231.68554688 -0.13964844 C-224.17540787 -2.17010611 -216.61224211 -3.7883218 -208.97070312 -5.25292969 C-208.30318024 -5.38116119 -207.63565735 -5.5093927 -206.94790649 -5.64151001 C-195.09798256 -7.90306893 -183.24588542 -9.6592506 -171.23876953 -10.85058594 C-168.19768964 -11.15517532 -165.1598837 -11.48325083 -162.12181091 -11.8162384 C-107.9006767 -17.68254496 -52.79165082 -13.85567276 0 0 Z " fill="#FF6969" transform="translate(1111.845703125,403.1904296875)"/>
<path d="M0 0 C2.19595944 0.01005461 4.39192336 0.01917605 6.58789062 0.02734375 C11.91285986 0.04914963 17.23765835 0.08242868 22.5625 0.125 C21.5725 0.785 20.5825 1.445 19.5625 2.125 C20.70203125 2.33253906 21.8415625 2.54007813 23.015625 2.75390625 C48.38963213 7.59325078 74.96937701 17.19773145 95.5625 33.125 C96.14692871 33.56859863 96.73135742 34.01219727 97.33349609 34.46923828 C135.2115906 63.38857354 161.90696922 104.43831181 169.8125 151.8125 C170.79973692 159.22609047 171.30675552 166.65473526 171.5625 174.125 C171.60552246 175.37313477 171.60552246 175.37313477 171.64941406 176.64648438 C172.05020159 190.41531162 171.07423974 203.58237712 168.5625 217.125 C168.36164795 218.22787354 168.36164795 218.22787354 168.15673828 219.35302734 C163.2120502 245.46697397 151.07737212 271.35748308 134.5625 292.125 C134.15241699 292.64642578 133.74233398 293.16785156 133.31982422 293.70507812 C121.62990753 308.45890252 108.32476521 321.7790818 92.5625 332.125 C91.85867188 332.58745117 91.15484375 333.04990234 90.4296875 333.52636719 C67.81904074 348.19732129 44.00154591 357.00243486 17.5625 362.125 C16.64210938 362.32222656 15.72171875 362.51945312 14.7734375 362.72265625 C9.91369207 363.33160245 5.07935108 363.22852843 0.1875 363.1875 C-0.83472656 363.18298828 -1.85695313 363.17847656 -2.91015625 363.17382812 C-5.41933194 363.162103 -7.9283849 363.14569176 -10.4375 363.125 C-10.4375 363.785 -10.4375 364.445 -10.4375 365.125 C-55.51547574 363.73429649 -99.13811193 349.61135423 -132.4375 318.125 C-133.74606702 317.01617511 -135.05844901 315.91183332 -136.375 314.8125 C-156.8707237 296.78119198 -171.19166466 272.14243844 -181.4375 247.125 C-181.84742188 246.12984375 -182.25734375 245.1346875 -182.6796875 244.109375 C-185.68720074 236.32248026 -187.67567307 228.26818967 -189.4375 220.125 C-189.59138184 219.44518066 -189.74526367 218.76536133 -189.90380859 218.06494141 C-192.57487296 205.7838206 -192.75240417 193.44987734 -192.8125 180.9375 C-192.82035522 180.13519958 -192.82821045 179.33289917 -192.83630371 178.50628662 C-192.92352114 167.04773152 -191.78992418 156.33434538 -189.4375 145.125 C-189.25477539 144.19518311 -189.07205078 143.26536621 -188.88378906 142.30737305 C-179.52027886 96.14032958 -149.53169291 55.81114192 -110.87011719 29.70947266 C-93.22527865 18.2165981 -73.96899982 9.81203504 -53.4375 5.125 C-52.27992188 4.85042969 -51.12234375 4.57585938 -49.9296875 4.29296875 C-33.14259084 0.4811336 -17.13212406 -0.1374616 0 0 Z " fill="#FF6969" transform="translate(1011.4375,720.875)"/>
<path d="M0 0 C0 61.38 0 122.76 0 186 C-17.82176379 176.27903794 -35.57772732 166.48863673 -53.07885742 156.20117188 C-60.16941872 152.04215563 -67.31705129 147.99708463 -74.5 144 C-83.65296117 138.90414967 -92.72949493 133.69362254 -101.76513672 128.39282227 C-108.92586294 124.19638234 -116.120998 120.06347231 -123.33395386 115.95779419 C-127.42510723 113.62721213 -131.51077259 111.28702891 -135.59667969 108.94726562 C-137.85630803 107.65438215 -140.11736675 106.36399523 -142.37988281 105.07617188 C-145.50982506 103.29109033 -148.63093582 101.49150345 -151.75 99.6875 C-153.16176514 98.88783813 -153.16176514 98.88783813 -154.60205078 98.07202148 C-155.45009277 97.57774658 -156.29813477 97.08347168 -157.171875 96.57421875 C-157.9153418 96.14713623 -158.65880859 95.72005371 -159.42480469 95.2800293 C-160.20452637 94.64641479 -160.20452637 94.64641479 -161 94 C-161 93.01 -161 92.02 -161 91 C-160.36835937 90.64921387 -159.73671875 90.29842773 -159.0859375 89.93701172 C-147.32571989 83.39814433 -135.6034648 76.81384249 -124 70 C-114.85089669 64.62798054 -105.62596802 59.40923438 -96.35546875 54.25 C-89.18646305 50.25035548 -82.07907237 46.15651956 -75 42 C-66.8858098 37.23570484 -58.72193412 32.5758351 -50.5 28 C-40.10439721 22.21289996 -29.80521662 16.27394321 -19.54296875 10.25390625 C-18.64755371 9.72941895 -17.75213867 9.20493164 -16.82958984 8.66455078 C-14.78425623 7.46135107 -12.74347312 6.25040452 -10.70556641 5.03466797 C-9.6232373 4.39287598 -8.5409082 3.75108398 -7.42578125 3.08984375 C-6.43618408 2.49937256 -5.44658691 1.90890137 -4.42700195 1.30053711 C-2 0 -2 0 0 0 Z " fill="#FFFEFE" transform="translate(1060,812)"/>
<path d="M0 0 C0.33 0 0.66 0 1 0 C1.01981934 1.08079834 1.03963867 2.16159668 1.06005859 3.27514648 C1.45050154 23.91068331 1.92393011 44.45083661 4 65 C3.34 65 2.68 65 2 65 C1.67 68.96 1.34 72.92 1 77 C0.67 77 0.34 77 0 77 C0 51.59 0 26.18 0 0 Z " fill="#FF8888" transform="translate(587,890)"/>
<path d="M0 0 C0.33 0 0.66 0 1 0 C1.33 3.63 1.66 7.26 2 11 C1.34 11 0.68 11 0 11 C-0.33 14.96 -0.66 18.92 -1 23 C-1.33 23 -1.66 23 -2 23 C-2.05429278 20.29139335 -2.09381211 17.58389099 -2.125 14.875 C-2.14175781 14.11445312 -2.15851562 13.35390625 -2.17578125 12.5703125 C-2.21546246 7.96729269 -1.75907577 4.33535996 0 0 Z " fill="#FF7979" transform="translate(589,944)"/>
</svg>
